<?xml version="1.0" encoding="utf-8"?>
<!-- Generator: Adobe Illustrator 23.1.0, SVG Export Plug-In . SVG Version: 6.00 Build 0)  -->
<svg version="1.1" id="Layer_1" xmlns="http://www.w3.org/2000/svg" xmlns:xlink="http://www.w3.org/1999/xlink" x="0px" y="0px"
	 viewBox="0 0 1200 1200" enable-background="new 0 0 1200 1200" xml:space="preserve">
<g>
	<path fill="#D85050" d="M534.44,474.693c-12.715-19.026-18.279-42.846-13.653-67.1c9.348-49.008,56.654-81.157,105.661-71.809
		c49.007,9.348,81.157,56.654,71.809,105.661c-2.34,12.268-7.061,23.479-13.59,33.248H534.44z"/>
	<path fill="#43B57E" d="M605.414,372.77c-5.422,0-10.503-3.358-12.437-8.756c-1.317-3.673-31.696-91.088,18.293-179.292
		C665.188,89.583,742.712,90.1,745.922,90.043c7.302,0.145,13.109,6.179,12.967,13.483c-0.139,7.3-6.261,13.044-13.478,12.967
		c-0.026-0.005-0.054-0.005-0.088-0.005c-3.66,0-65.691,1.25-111.044,81.272c-43.847,77.377-16.673,156.567-16.392,157.363
		c2.431,6.876-1.16,14.434-8.031,16.877C608.39,372.522,606.889,372.77,605.414,372.77z"/>
	<path fill="#D67527" d="M310.481,600.911c7.518-41.144,43.311-71.073,85.136-71.193c173.93-0.5,208.271-1.105,408.299-1.635
		c42.03-0.111,78.105,29.906,85.629,71.257l73.515,404.047H236.939L310.481,600.911z"/>
	<path fill="#EE7A89" d="M1149.872,1033.953c-1.356,14.22-14.113,24.663-28.397,24.663h-31.507
		c-11.778,0-23.161,4.251-32.055,11.972h0c-29.248,25.389-66.677,39.369-105.408,39.369H247.495
		c-38.731,0-76.16-13.979-105.408-39.369h0c-8.895-7.721-20.277-11.972-32.055-11.972H77.35c-15.991,0-28.777-13.724-27.221-30.036
		c1.356-14.22,14.112-24.664,28.396-24.664h1044.126C1138.642,1003.916,1151.427,1017.641,1149.872,1033.953z"/>
	<path fill="#964F23" d="M897.015,641.485c-15.808-19.1-26.157-29.931-47.098-29.931c-21.37,0-31.673,11.222-48.044,31.06
		c-16.444,19.926-36.909,44.723-77.039,44.723c-40.131,0-60.597-24.797-77.041-44.723c-16.37-19.838-26.673-31.06-48.045-31.06
		c-21.372,0-31.675,11.222-48.046,31.06c-16.444,19.926-36.91,44.723-77.039,44.723c-40.131,0-60.598-24.797-77.044-44.723
		c-16.374-19.838-26.679-31.06-48.057-31.06c-20.705,0-31.069,10.606-46.577,29.296l7.298-39.938
		c7.518-41.144,43.311-71.073,85.136-71.193c86.982-0.25,139.053-0.526,194.395-0.806c70.09-0.219,142.228-0.44,218.102-0.653
		c40.206,1.829,74.16,31.12,81.431,71.081L897.015,641.485z"/>
	<path fill="#CC651F" d="M874.952,976.85c-6.274,0-11.843-4.479-12.998-10.869l-45.358-250.713
		c-1.302-7.191,3.472-14.067,10.66-15.369c7.201-1.276,14.067,3.472,15.366,10.658l45.358,250.713
		c1.302,7.191-3.472,14.067-10.66,15.369C876.525,976.783,875.732,976.85,874.952,976.85z M336.028,965.03l44.234-249.814
		c1.273-7.191-3.526-14.052-10.717-15.328c-7.196-1.271-14.057,3.518-15.33,10.72l-44.234,249.814
		c-1.273,7.191,3.526,14.052,10.717,15.328c0.78,0.14,1.558,0.201,2.322,0.201C329.313,975.951,334.892,971.447,336.028,965.03z
		 M605.223,979.552c7.302-0.088,13.153-6.08,13.068-13.38l-3.04-255.776c-0.088-7.305-5.998-13.297-13.383-13.07
		c-7.302,0.088-13.153,6.08-13.067,13.38l3.04,255.776c0.088,7.253,5.99,13.07,13.222,13.07
		C605.114,979.552,605.169,979.552,605.223,979.552z M749.43,976.773c7.263-0.785,12.512-7.31,11.724-14.573l-23.41-216.101
		c-0.785-7.263-7.315-12.517-14.571-11.722c-7.263,0.785-12.512,7.31-11.724,14.573l23.41,216.1
		c0.734,6.778,6.465,11.799,13.132,11.799C748.467,976.85,748.947,976.825,749.43,976.773z M473.011,968.734l25.21-219.701
		c0.832-7.258-4.376-13.814-11.631-14.646c-7.282-0.832-13.814,4.376-14.648,11.629l-25.21,219.701
		c-0.832,7.258,4.376,13.814,11.631,14.646c0.514,0.062,1.02,0.088,1.524,0.088C466.517,980.451,472.236,975.476,473.011,968.734z"
		/>
	<path fill="#FCDC6E" d="M179.292,513.01c-6.27,28.432-23.689,28.432-29.959,0c-8.202-37.193-37.828-66.819-75.021-75.021
		c-28.432-6.27-28.432-23.689,0-29.959c37.193-8.202,66.819-37.828,75.021-75.021c6.27-28.432,23.689-28.432,29.959,0
		c8.202,37.193,37.828,66.819,75.021,75.021c28.432,6.27,28.432,23.689,0,29.959C217.12,446.191,187.495,475.816,179.292,513.01z
		 M449.964,248.311c22.756-5.019,22.756-18.96,0-23.978c-29.769-6.565-53.481-30.277-60.046-60.046
		c-5.019-22.756-18.96-22.756-23.978,0c-6.565,29.769-30.277,53.481-60.046,60.046c-22.756,5.019-22.756,18.96,0,23.978
		c29.769,6.565,53.481,30.277,60.046,60.046c5.019,22.756,18.96,22.756,23.978,0C396.483,278.587,420.195,254.876,449.964,248.311z
		 M589.814,528.912c46.485-0.146,93.903-0.292,142.682-0.435c3.878-5.548,6.171-12.285,6.171-19.568
		c0-18.897-15.319-34.217-34.216-34.217h-208.9c-18.897,0-34.216,15.319-34.216,34.217c0,7.73,2.594,14.837,6.917,20.566
		C515.441,529.295,551.862,529.104,589.814,528.912z"/>
</g>
</svg>
